<svg width="24" height="24" viewBox="0 0 24 24" fill="none" xmlns="http://www.w3.org/2000/svg" preserveAspectRatio="xMinYMid meet">
<path fill-rule="evenodd" clip-rule="evenodd" d="M 5.7954 4.9106 C 4.9631 4.9106 4.2899 5.5883 4.2954 6.4206 L 4.3684 17.4131 C 4.3739 18.2376 5.0438 18.9031 5.8683 18.9031 L 18.8452 18.9031 C 19.6736 18.9031 20.3452 18.2315 20.3452 17.4031 L 20.3451 10.3949 C 20.3451 9.5665 19.6735 8.8949 18.8451 8.8949 H 14.2757 C 13.4905 8.8949 12.7509 8.526 12.2785 7.8986 L 10.4789 5.5084 C 10.1955 5.132 9.7517 4.9107 9.2805 4.9107 L 5.7954 4.9106 Z M 3.2955 6.4272 C 3.2863 5.0401 4.4082 3.9106 5.7954 3.9106 L 9.2805 3.9106 C 10.0657 3.9106 10.8053 4.2795 11.2776 4.9067 H 18.849 C 20.2297 4.9067 21.349 6.026 21.349 7.4067 V 10.4067 C 21.349 10.428 21.3477 10.449 21.3451 10.4695 L 21.3452 17.4031 C 21.3452 18.7838 20.2259 19.9031 18.8452 19.9031 L 5.8683 19.9031 C 4.4941 19.9031 3.3775 18.7939 3.3684 17.4197 L 3.2955 6.4272 Z M 13.0774 7.2972 L 12.0305 5.9067 H 18.849 C 19.6774 5.9067 20.349 6.5783 20.349 7.4067 V 8.3977 C 19.9305 8.0821 19.4097 7.8949 18.8451 7.8949 H 14.2757 C 13.8046 7.8949 13.3608 7.6735 13.0774 7.2972 Z M 13.8545 15.91 C 13.5784 15.91 13.3545 16.1339 13.3545 16.41 C 13.3545 16.6862 13.5784 16.91 13.8545 16.91 H 17.8533 C 18.1294 16.91 18.3533 16.6862 18.3533 16.41 C 18.3533 16.1339 18.1294 15.91 17.8533 15.91 A 1 1 0 0 0 14 16 H 14 Z" fill="#212529"/>
</svg>